<?xml version="1.0" standalone="no"?>
<!DOCTYPE svg PUBLIC "-//W3C//DTD SVG 20010904//EN"
 "http://www.w3.org/TR/2001/REC-SVG-20010904/DTD/svg10.dtd">
<svg version="1.0" xmlns="http://www.w3.org/2000/svg"
 width="800.000000pt" height="800.000000pt" viewBox="0 0 800.000000 800.000000"
 preserveAspectRatio="xMidYMid meet">

<g transform="translate(0.000000,800.000000) scale(0.100000,-0.100000)"
fill="#000000" stroke="none">
<path d="M2546 7181 c-3 -4 -1 -13 3 -20 5 -7 4 -34 -1 -59 -4 -26 -8 -173 -7
-327 1 -154 1 -478 0 -720 -1 -242 -1 -701 -1 -1020 0 -319 -2 -672 -5 -785
-9 -324 -9 -331 0 -400 8 -62 7 -64 -10 -50 -17 14 -18 13 -11 -15 4 -16 8
-48 10 -70 1 -22 6 -57 10 -77 8 -39 -7 -56 -18 -20 -2 9 -4 -8 -3 -38 1 -30
8 -61 15 -68 6 -7 10 -23 8 -35 -18 -85 -28 -257 -15 -235 11 18 29 -2 24 -25
-6 -24 -18 -312 -17 -389 0 -27 -4 -48 -9 -48 -14 0 -11 -304 3 -349 8 -26 7
-35 -3 -42 -11 -8 -11 -12 4 -23 14 -11 17 -22 12 -48 -9 -51 -12 -198 -4
-248 4 -26 3 -50 -3 -57 -5 -7 -7 -16 -4 -21 7 -11 8 -81 2 -132 -2 -19 -1
-39 2 -45 6 -10 4 -479 -3 -617 -2 -56 0 -88 6 -88 6 0 7 -5 4 -10 -4 -6 -10
-8 -14 -6 -3 3 -8 -63 -10 -145 l-2 -149 35 0 c30 0 35 4 39 28 l4 27 2 -27 1
-28 1421 0 1421 0 -6 232 c-3 128 -5 383 -6 566 0 307 -5 374 -25 311 -4 -11
-13 -18 -20 -15 -7 2 -17 -3 -21 -12 -4 -9 -9 -163 -11 -341 -2 -179 -6 -327
-8 -330 -3 -2 -5 45 -5 105 0 60 -4 372 -8 694 -7 614 -6 4391 2 4855 3 183 8
270 16 270 5 0 17 13 25 28 l14 28 -1414 -2 c-778 0 -1417 -4 -1419 -8z m38
-112 c2 -30 7 -301 10 -604 6 -495 12 -766 22 -895 6 -81 7 -784 1 -840 -3
-30 -8 -63 -12 -73 -4 -9 -3 -72 3 -140 6 -70 7 -168 3 -232 -4 -60 -4 -147 1
-193 4 -49 4 -91 -1 -101 -5 -9 -9 -86 -9 -171 1 -86 4 -144 9 -130 6 23 7 23
8 -8 1 -18 -3 -41 -8 -50 -7 -15 -21 -1435 -21 -2265 0 -200 -3 -306 -10 -302
-6 4 -10 392 -10 1103 0 603 0 1961 -1 3017 0 1056 0 1926 0 1934 2 32 12 0
15 -50z m2383 -180 c4 -57 10 -79 19 -79 8 0 14 5 14 10 0 6 7 10 15 10 8 0
15 -9 15 -21 0 -11 4 -18 10 -14 5 3 7 12 3 20 -3 8 -2 15 1 15 13 0 24 -45
14 -57 -6 -7 -8 -24 -6 -38 3 -14 2 -25 -1 -25 -4 0 -6 -29 -6 -65 1 -52 5
-68 20 -80 17 -12 17 -14 3 -9 -19 7 -19 6 -21 -101 -1 -103 3 -146 13 -140
34 21 55 -95 43 -227 -6 -60 -23 -81 -23 -29 0 17 -4 33 -10 36 -6 4 -10 -7
-10 -24 0 -18 -5 -31 -12 -31 -7 -1 -2 -7 11 -14 15 -8 20 -16 12 -20 -15 -10
-14 -26 2 -26 30 0 35 -47 33 -316 -1 -148 -5 -274 -9 -281 -4 -6 -2 -23 4
-37 10 -21 9 -33 -5 -63 -16 -39 -19 -110 -4 -119 11 -7 10 -62 -2 -69 -17
-10 -11 -33 10 -40 11 -3 20 -14 20 -23 0 -13 -2 -14 -9 -4 -6 10 -10 8 -14
-10 -10 -33 -8 -58 2 -58 5 0 12 8 14 18 3 9 6 -8 7 -38 1 -30 4 -96 6 -146 4
-81 2 -95 -21 -140 -29 -57 -31 -77 -10 -94 11 -9 13 -16 5 -24 -12 -12 -13
-46 -1 -46 5 0 8 -102 7 -230 0 -126 -5 -230 -9 -230 -5 0 -5 -9 -2 -20 4 -11
2 -20 -4 -20 -18 0 -34 43 -33 90 1 52 -12 33 -24 -35 -9 -56 -23 -17 -14 42
4 24 3 46 -2 49 -4 3 -8 -10 -8 -28 0 -19 -6 -43 -14 -53 -8 -11 -12 -25 -9
-31 2 -7 0 -15 -6 -18 -6 -4 -10 -90 -10 -230 -1 -123 -3 -333 -6 -467 -3
-134 -6 -705 -7 -1269 -1 -978 -5 -1243 -21 -1210 -4 8 -8 281 -10 605 l-2
590 -958 0 c-528 0 -960 -2 -962 -5 -2 -3 -6 -273 -10 -600 -4 -327 -9 -597
-11 -599 -2 -2 -7 -1 -11 3 -5 4 -10 710 -12 1569 -1 859 -4 1563 -5 1563 0 1
-34 0 -73 -3 -60 -5 -74 -9 -79 -25 -8 -27 -71 -21 -91 8 -14 21 -13 22 34 17
40 -5 46 -3 36 8 -7 7 -13 22 -13 32 0 17 -5 19 -35 14 -26 -4 -35 -2 -35 8 0
17 38 45 63 45 18 0 21 5 31 53 5 20 3 27 -9 27 -8 0 -15 7 -15 15 0 8 -4 15
-10 15 -14 0 -12 28 3 33 9 3 9 7 1 18 -7 8 -12 38 -12 67 1 29 -2 56 -6 59
-3 3 -6 -3 -6 -15 0 -12 -5 -22 -11 -22 -7 0 -9 55 -5 181 4 128 3 186 -5 195
-6 8 -9 20 -6 28 3 8 2 29 -3 46 -5 19 -5 42 2 60 8 24 7 33 -6 46 -9 9 -14
24 -12 33 25 82 30 400 11 774 -3 67 -1 81 16 98 10 10 19 28 19 38 0 10 7 21
15 25 8 3 15 11 15 17 0 9 -3 9 -14 0 -11 -10 -15 1 -20 61 -3 40 -8 89 -10
108 -5 51 5 100 20 100 7 0 15 -10 17 -22 4 -21 4 -21 6 2 0 15 -5 32 -11 38
-9 9 -10 15 -2 20 11 7 22 68 28 150 2 30 -1 42 -11 42 -9 0 -12 8 -8 25 3 14
7 37 10 51 7 32 31 26 27 -7 -2 -19 -1 -21 7 -9 6 8 11 24 11 35 0 11 10 29
21 39 18 15 21 25 16 67 -3 27 -2 51 4 54 5 4 9 -3 9 -14 0 -27 12 -27 29 1
10 16 10 23 2 26 -15 5 -14 22 2 22 29 0 37 -54 38 -249 1 -108 5 -223 9 -256
4 -34 8 121 9 360 1 406 5 495 21 495 15 0 19 -49 20 -290 2 -256 6 -314 21
-304 17 10 21 -27 6 -58 -15 -31 -12 -63 3 -38 5 7 8 2 8 -14 0 -14 -4 -26 -9
-26 -5 0 -9 5 -9 12 0 6 -2 9 -5 6 -3 -3 6 -32 20 -63 14 -32 28 -55 32 -51
10 9 10 57 0 63 -4 2 -3 11 4 19 8 10 8 14 0 14 -17 0 -13 31 6 52 9 10 23 18
31 18 8 0 12 6 9 13 -3 7 5 23 18 35 29 28 36 73 28 204 -4 78 -3 108 5 108 7
0 12 -6 12 -14 0 -7 7 -19 15 -26 10 -8 15 -30 15 -62 0 -30 4 -47 10 -43 6 4
10 -6 10 -24 0 -16 -6 -32 -12 -35 -10 -5 -10 -7 0 -12 6 -3 12 -15 12 -25 0
-11 -4 -18 -9 -14 -20 11 -21 -34 -3 -67 14 -25 17 -39 10 -52 -9 -16 -7 -64
5 -111 3 -11 6 -27 6 -36 1 -20 41 -33 56 -18 6 6 2 12 -13 15 -16 5 -22 14
-24 38 0 17 -2 45 -4 61 -3 34 4 65 14 65 4 0 7 -32 7 -70 0 -46 3 -70 11 -70
14 0 27 57 17 74 -4 6 -6 19 -5 29 2 10 -4 29 -12 42 -9 13 -16 32 -16 42 0
15 2 16 10 3 12 -19 22 -8 21 22 -6 98 1 168 15 168 11 0 12 -51 1 -67 -6 -8
-3 -18 6 -28 23 -22 30 -19 23 10 -4 14 -3 31 1 38 4 6 8 42 10 80 2 38 8 77
13 88 10 19 50 27 50 11 0 -5 12 -14 26 -21 21 -9 25 -16 19 -40 -4 -21 -2
-30 9 -34 19 -7 21 -28 4 -45 -18 -18 -19 -67 -3 -99 l15 -28 0 43 c0 23 4 42
8 42 4 0 6 15 4 34 -3 29 -1 34 14 32 15 -2 18 -10 16 -39 -2 -24 2 -43 12
-53 15 -14 16 -13 16 9 0 35 10 39 32 14 15 -16 18 -18 14 -5 -3 10 -1 20 4
23 4 3 11 43 15 90 4 47 11 85 16 85 5 0 9 -5 9 -11 0 -6 7 -9 15 -5 10 4 15
-1 15 -16 0 -17 -2 -18 -15 -8 -13 11 -15 8 -15 -21 0 -31 3 -34 29 -35 28 -2
30 0 36 57 8 66 -2 130 -16 108 -5 -8 -9 -24 -9 -36 0 -13 -5 -23 -11 -23 -7
0 -8 14 -4 43 10 55 13 60 42 54 21 -4 24 -1 19 14 -3 11 -9 28 -12 39 -4 12
-2 20 5 20 6 0 14 -13 17 -29 5 -22 12 -28 30 -28 20 0 24 4 24 30 0 29 1 30
14 11 9 -11 11 -23 5 -30 -10 -12 -7 -74 4 -67 4 2 7 15 7 29 0 14 4 23 10 19
5 -3 7 -12 3 -20 -3 -9 1 -15 11 -15 20 0 22 -38 2 -46 -12 -5 -12 -10 0 -39
9 -23 12 -53 7 -99 -4 -42 -2 -66 4 -66 15 0 20 39 22 180 1 69 7 129 12 134
6 6 9 4 9 -6 0 -9 7 -29 15 -44 8 -16 15 -47 15 -69 0 -36 3 -40 25 -41 20 -2
25 3 25 23 0 18 -4 24 -15 19 -16 -6 -22 19 -7 28 5 3 7 19 4 36 -3 22 -1 30
9 28 9 -2 13 5 12 20 -2 13 1 21 7 17 16 -10 12 -55 -5 -55 -8 0 -15 -7 -15
-16 0 -10 6 -14 14 -11 21 8 25 -10 27 -138 1 -77 -2 -120 -9 -127 -16 -16
-15 -29 1 -23 12 5 16 -25 20 -177 1 -32 5 -58 8 -58 4 0 7 -19 7 -42 1 -64
13 -137 23 -144 5 -3 9 18 9 45 0 44 3 51 20 51 27 0 26 18 -1 22 -17 2 -22
12 -25 53 -2 28 -7 77 -10 110 -3 33 -6 96 -6 140 -1 66 2 80 14 77 18 -3 28
36 28 107 0 32 3 42 10 31 5 -8 9 -36 8 -61 0 -31 7 -57 19 -73 23 -32 37 -33
27 -3 -4 12 -6 27 -5 32 1 6 4 29 7 53 6 43 19 55 27 25 3 -10 5 -45 6 -78 1
-62 18 -145 20 -97 2 41 35 23 42 -23 6 -39 6 -39 8 -7 0 18 5 31 10 27 21
-13 18 13 -4 37 -21 23 -23 30 -14 62 14 51 33 46 25 -6 -5 -35 -2 -48 15 -68
l21 -25 -6 59 c-6 50 -4 57 8 47 11 -9 15 -6 21 16 4 18 2 31 -8 38 -17 12
-35 61 -18 51 6 -4 11 -14 11 -22 0 -8 7 -14 15 -14 9 0 15 -9 15 -24 0 -14 5
-28 10 -31 6 -3 8 -16 5 -28 -3 -12 1 -31 9 -42 15 -20 15 -19 16 5 1 15 4 19
7 10 3 -8 12 -21 21 -27 14 -11 13 -15 -6 -32 -22 -18 -31 -48 -12 -36 6 4 10
-5 10 -19 0 -14 5 -26 10 -26 6 0 10 7 10 15 0 8 4 15 10 15 10 0 5 88 -5 98
-3 3 0 11 6 19 7 7 9 28 6 46 -7 44 40 141 71 145 17 3 22 -2 22 -18 0 -12 4
-18 10 -15 6 4 10 16 9 28 -4 43 1 68 12 62 6 -4 8 -13 5 -21 -9 -23 4 -42 24
-37 14 4 22 -2 30 -22 6 -15 7 -31 4 -36 -3 -6 -3 -16 0 -24 7 -20 36 -7 36
16 0 25 17 24 25 -1 3 -11 10 -20 15 -20 4 0 11 -19 14 -42 3 -24 6 -47 7 -53
1 -5 -2 -27 -6 -47 -7 -36 -6 -37 21 -34 27 3 29 6 26 39 -4 47 14 83 34 66
19 -16 19 5 -1 25 -17 17 -21 51 -4 40 15 -9 30 16 23 38 -2 9 -1 19 4 22 14
9 22 -33 12 -59 -10 -26 0 -103 20 -150 11 -28 13 -28 20 -10 5 12 9 -20 10
-85 0 -58 3 -196 6 -308 6 -214 1 -263 -20 -202 -12 34 -13 34 -25 12 -6 -12
-18 -22 -26 -22 -7 0 -16 -8 -19 -18 -9 -27 -140 -31 -151 -5 -6 17 -7 17 -16
1 -14 -24 -28 -23 -22 2 3 11 0 20 -6 20 -6 0 -11 -7 -11 -16 0 -11 -6 -14
-20 -9 -14 5 -20 2 -20 -9 0 -14 18 -16 129 -16 70 0 149 -3 174 -6 l45 -6 4
558 c2 308 8 567 12 578 8 17 10 17 18 1 6 -9 12 -52 15 -96z m-1550 -31 c-3
-8 -6 -5 -6 6 -1 11 2 17 5 13 3 -3 4 -12 1 -19z m233 -33 c0 -8 -2 -15 -4
-15 -2 0 -6 7 -10 15 -3 8 -1 15 4 15 6 0 10 -7 10 -15z m-210 -19 c0 -8 5
-27 11 -43 10 -26 12 -27 19 -8 9 20 9 20 9 0 1 -27 -33 -48 -56 -36 -10 5
-26 12 -35 15 -27 8 -11 39 17 32 16 -4 22 -1 22 12 0 9 -4 23 -10 30 -7 8 -5
12 7 12 9 0 16 -6 16 -14z m220 -30 c0 -31 -10 -56 -21 -56 -10 0 -12 63 -2
73 13 14 23 6 23 -17z m447 -8 c-3 -7 -5 -2 -5 12 0 14 2 19 5 13 2 -7 2 -19
0 -25z m-590 -35 c-3 -10 -5 -4 -5 12 0 17 2 24 5 18 2 -7 2 -21 0 -30z m1213
2 c0 -8 -4 -15 -10 -15 -5 0 -10 7 -10 15 0 8 5 15 10 15 6 0 10 -7 10 -15z
m-1400 -69 c0 -3 -4 -8 -10 -11 -5 -3 -10 -1 -10 4 0 6 5 11 10 11 6 0 10 -2
10 -4z m-2 -57 c-2 -6 -8 -10 -13 -10 -5 0 -11 4 -13 10 -2 6 4 11 13 11 9 0
15 -5 13 -11z m-488 -85 c0 -8 -4 -12 -10 -9 -5 3 -10 10 -10 16 0 5 5 9 10 9
6 0 10 -7 10 -16z m2240 -125 c0 -10 -4 -19 -10 -19 -5 0 -10 12 -10 26 0 14
4 23 10 19 6 -3 10 -15 10 -26z m-3 -51 c-3 -8 -6 -5 -6 6 -1 11 2 17 5 13 3
-3 4 -12 1 -19z m-2321 -35 c-10 -10 -19 5 -10 18 6 11 8 11 12 0 2 -7 1 -15
-2 -18z m2374 -1038 c0 -8 -4 -15 -10 -15 -5 0 -7 7 -4 15 4 8 8 15 10 15 2 0
4 -7 4 -15z m-13 -187 c-2 -18 -4 -6 -4 27 0 33 2 48 4 33 2 -15 2 -42 0 -60z
m-97 -1113 c10 -13 9 -15 -8 -15 -22 0 -36 13 -25 24 10 10 20 7 33 -9z
m-2169 -77 c12 -13 19 -18 15 -11 -9 17 11 26 31 14 13 -7 21 -5 30 7 15 20
15 13 14 -286 0 -149 -3 -197 -14 -213 -13 -17 -15 -18 -21 -4 -3 9 -10 14
-15 10 -6 -3 -8 -12 -4 -20 7 -20 -6 -19 -29 2 -19 17 -19 16 -13 -10 5 -18 3
-27 -5 -27 -6 0 -10 -6 -7 -12 2 -7 16 -13 30 -13 15 0 27 -4 27 -10 0 -5 -10
-10 -23 -10 -17 0 -23 -7 -25 -27 -4 -38 -15 -35 -31 8 -11 30 -11 38 0 45 11
6 11 11 1 21 -7 7 -12 37 -12 70 0 41 -4 60 -14 64 -23 9 -29 65 -9 80 17 12
17 14 -2 28 -18 14 -18 15 -2 16 10 0 17 8 17 21 0 11 10 37 22 59 21 36 22
39 5 57 -9 11 -17 25 -17 31 0 7 -5 12 -11 12 -16 0 -7 81 11 103 19 22 25 22
51 -5z m2219 -132 c0 -14 -4 -28 -10 -31 -6 -4 -10 7 -10 24 0 17 5 31 10 31
6 0 10 -11 10 -24z m-2300 -11 c0 -14 -4 -25 -10 -25 -5 0 -10 11 -10 25 0 14
5 25 10 25 6 0 10 -11 10 -25z m2235 -115 c-3 -5 -11 -10 -16 -10 -6 0 -7 5
-4 10 3 6 11 10 16 10 6 0 7 -4 4 -10z m-2075 -310 c0 -5 -4 -10 -10 -10 -5 0
-10 5 -10 10 0 6 5 10 10 10 6 0 10 -4 10 -10z m-92 -314 c3 -20 0 -27 -10
-24 -7 3 -14 17 -16 32 -3 20 0 27 10 24 7 -3 14 -17 16 -32z m2502 -2056 l-5
-145 -6 157 c-3 86 -3 172 0 190 5 32 5 32 11 -12 3 -25 3 -110 0 -190z
m-2750 -7 c0 -36 -2 -64 -4 -62 -9 9 -17 91 -11 109 11 35 15 22 15 -47z"/>
<path d="M2602 4810 c0 -14 2 -19 5 -12 2 6 2 18 0 25 -3 6 -5 1 -5 -13z"/>
<path d="M3761 6748 c1 -24 3 -27 6 -10 2 12 9 20 14 17 5 -4 9 1 9 9 0 9 -7
16 -15 16 -11 0 -15 -10 -14 -32z"/>
<path d="M4972 6755 c0 -16 2 -22 5 -12 2 9 2 23 0 30 -3 6 -5 -1 -5 -18z"/>
<path d="M3815 6720 c-3 -5 -1 -10 4 -10 6 0 11 5 11 10 0 6 -2 10 -4 10 -3 0
-8 -4 -11 -10z"/>
<path d="M4973 6675 c0 -22 2 -30 4 -17 2 12 2 30 0 40 -3 9 -5 -1 -4 -23z"/>
<path d="M3961 6663 c0 -5 4 -17 9 -28 8 -18 9 -17 9 8 1 15 -3 27 -9 27 -5 0
-10 -3 -9 -7z"/>
<path d="M4470 6655 c0 -8 5 -15 10 -15 6 0 10 7 10 15 0 8 -4 15 -10 15 -5 0
-10 -7 -10 -15z"/>
<path d="M4660 6641 c0 -12 5 -21 10 -21 6 0 10 6 10 14 0 8 -4 18 -10 21 -5
3 -10 -3 -10 -14z"/>
<path d="M4646 6562 c0 -26 4 -58 9 -72 8 -22 10 -19 16 25 5 45 -5 95 -20 95
-3 0 -6 -21 -5 -48z"/>
<path d="M3660 6591 c0 -6 5 -13 10 -16 6 -3 10 1 10 9 0 9 -4 16 -10 16 -5 0
-10 -4 -10 -9z"/>
<path d="M3683 6569 c-11 -11 -5 -59 8 -59 5 0 9 16 9 35 0 38 -1 40 -17 24z"/>
<path d="M5010 6546 c0 -8 5 -18 10 -21 6 -3 10 3 10 14 0 12 -4 21 -10 21 -5
0 -10 -6 -10 -14z"/>
<path d="M4346 6542 c-3 -6 -1 -14 5 -17 15 -10 25 3 12 16 -7 7 -13 7 -17 1z"/>
<path d="M3860 6504 c0 -8 5 -12 10 -9 6 3 10 10 10 16 0 5 -4 9 -10 9 -5 0
-10 -7 -10 -16z"/>
<path d="M4494 6496 c-4 -10 -2 -22 4 -28 8 -8 13 -7 18 6 4 10 2 22 -4 28 -8
8 -13 7 -18 -6z"/>
<path d="M3410 6475 c0 -8 5 -15 10 -15 6 0 10 7 10 15 0 8 -4 15 -10 15 -5 0
-10 -7 -10 -15z"/>
<path d="M4805 6480 c-3 -5 1 -10 10 -10 9 0 13 5 10 10 -3 6 -8 10 -10 10 -2
0 -7 -4 -10 -10z"/>
<path d="M4881 6474 c0 -11 3 -14 6 -6 3 7 2 16 -1 19 -3 4 -6 -2 -5 -13z"/>
<path d="M3522 6460 c0 -14 2 -19 5 -12 2 6 2 18 0 25 -3 6 -5 1 -5 -13z"/>
<path d="M3858 6458 c-2 -13 -1 -34 3 -48 5 -19 7 -14 8 23 1 50 -4 62 -11 25z"/>
<path d="M4840 6461 c0 -5 7 -14 15 -21 12 -10 13 -16 4 -27 -9 -11 -9 -12 4
-8 8 4 17 15 20 26 3 10 2 17 -3 14 -4 -3 -10 2 -14 10 -6 16 -26 21 -26 6z"/>
<path d="M4380 6452 c0 -5 7 -17 16 -28 14 -17 15 -17 10 -1 -3 10 -6 23 -6
28 0 5 -4 9 -10 9 -5 0 -10 -4 -10 -8z"/>
<path d="M2830 6441 c0 -6 5 -13 10 -16 6 -3 10 1 10 9 0 9 -4 16 -10 16 -5 0
-10 -4 -10 -9z"/>
<path d="M3445 6430 c-3 -5 -1 -10 4 -10 6 0 11 5 11 10 0 6 -2 10 -4 10 -3 0
-8 -4 -11 -10z"/>
<path d="M3550 6420 c0 -13 7 -20 20 -20 11 0 20 3 20 8 0 4 -9 13 -20 20 -18
11 -20 10 -20 -8z"/>
<path d="M3332 6410 c0 -14 2 -19 5 -12 2 6 2 18 0 25 -3 6 -5 1 -5 -13z"/>
<path d="M3580 6375 c0 -8 4 -15 10 -15 5 0 7 7 4 15 -4 8 -8 15 -10 15 -2 0
-4 -7 -4 -15z"/>
<path d="M4340 6366 c0 -8 5 -18 10 -21 6 -3 10 3 10 14 0 12 -4 21 -10 21 -5
0 -10 -6 -10 -14z"/>
<path d="M3136 6348 c-6 -26 25 -65 43 -54 8 5 7 12 -4 22 -8 9 -15 24 -15 35
0 26 -16 24 -24 -3z"/>
<path d="M4840 6339 c0 -5 5 -7 10 -4 6 3 10 8 10 11 0 2 -4 4 -10 4 -5 0 -10
-5 -10 -11z"/>
<path d="M4656 6313 c-11 -11 -6 -23 9 -23 8 0 15 4 15 9 0 13 -16 22 -24 14z"/>
<path d="M3091 6246 c2 -67 11 -88 26 -63 4 8 15 17 23 20 12 4 11 6 -2 6 -11
1 -18 9 -19 24 -3 60 -5 71 -17 75 -10 3 -12 -12 -11 -62z"/>
<path d="M5051 6274 c0 -11 3 -14 6 -6 3 7 2 16 -1 19 -3 4 -6 -2 -5 -13z"/>
<path d="M4231 6234 c0 -11 3 -14 6 -6 3 7 2 16 -1 19 -3 4 -6 -2 -5 -13z"/>
<path d="M4868 6194 c-5 -4 -8 -16 -8 -28 0 -14 3 -17 11 -9 6 6 9 19 7 28 -1
9 -6 13 -10 9z"/>
<path d="M5073 6155 c-3 -9 -3 -18 -1 -21 3 -3 8 4 11 16 6 23 -1 27 -10 5z"/>
<path d="M3220 6093 c0 -41 13 -35 24 10 5 20 3 27 -9 27 -11 0 -15 -11 -15
-37z"/>
<path d="M3040 6058 c0 -19 2 -20 10 -8 13 19 13 30 0 30 -5 0 -10 -10 -10
-22z"/>
<path d="M2949 5988 c0 -46 -2 -109 -3 -141 -1 -32 1 -60 6 -63 4 -3 8 60 8
140 0 80 -2 146 -5 146 -3 0 -5 -37 -6 -82z"/>
<path d="M3265 5981 c-12 -5 -28 -30 -39 -60 -15 -43 -22 -51 -45 -53 -14 -1
10 -4 54 -7 81 -6 115 -3 97 8 -6 3 -13 23 -17 44 l-7 38 -23 -21 c-20 -18
-23 -19 -29 -5 -4 10 4 25 21 41 27 25 23 29 -12 15z"/>
<path d="M3027 5965 c-11 -8 -17 -21 -14 -32 4 -16 6 -15 12 5 5 15 15 22 31
22 13 0 24 5 24 10 0 14 -32 12 -53 -5z"/>
<path d="M5060 5930 c0 -19 3 -21 12 -12 9 9 9 15 0 24 -9 9 -12 7 -12 -12z"/>
<path d="M5032 5898 c-2 -62 10 -158 19 -153 5 4 9 26 9 51 0 25 -4 43 -9 40
-5 -4 -7 3 -4 14 3 11 9 17 14 14 17 -10 9 33 -9 49 -18 16 -19 15 -20 -15z"/>
<path d="M3064 5898 c5 -24 3 -28 -13 -28 -15 0 -19 5 -14 18 6 15 4 15 -15
-2 -12 -11 -22 -21 -22 -23 0 -1 33 -3 74 -3 69 0 74 1 69 20 -6 23 -23 27
-23 5 0 -8 -7 -15 -15 -15 -8 0 -15 6 -15 14 0 7 -7 20 -17 27 -15 13 -16 11
-9 -13z"/>
<path d="M3610 5911 c0 -6 5 -13 10 -16 6 -3 10 1 10 9 0 9 -4 16 -10 16 -5 0
-10 -4 -10 -9z"/>
<path d="M4780 5899 c0 -5 5 -7 10 -4 6 3 10 8 10 11 0 2 -4 4 -10 4 -5 0 -10
-5 -10 -11z"/>
<path d="M3816 5881 c-4 -7 -5 -15 -2 -18 9 -9 19 4 14 18 -4 11 -6 11 -12 0z"/>
<path d="M3358 5863 c7 -3 16 -2 19 1 4 3 -2 6 -13 5 -11 0 -14 -3 -6 -6z"/>
<path d="M3408 5863 c6 -2 18 -2 25 0 6 3 1 5 -13 5 -14 0 -19 -2 -12 -5z"/>
<path d="M3459 5861 c12 -8 51 -4 51 5 0 2 -15 4 -32 4 -23 0 -29 -3 -19 -9z"/>
<path d="M3548 5863 c7 -3 16 -2 19 1 4 3 -2 6 -13 5 -11 0 -14 -3 -6 -6z"/>
<path d="M3628 5863 c6 -2 18 -2 25 0 6 3 1 5 -13 5 -14 0 -19 -2 -12 -5z"/>
<path d="M4463 5863 c9 -2 25 -2 35 0 9 3 1 5 -18 5 -19 0 -27 -2 -17 -5z"/>
<path d="M4528 5863 c7 -3 16 -2 19 1 4 3 -2 6 -13 5 -11 0 -14 -3 -6 -6z"/>
<path d="M4833 5812 c-56 -2 -73 -6 -73 -17 0 -18 16 -20 26 -4 5 8 10 6 16
-5 9 -16 11 -16 22 -1 11 15 13 15 25 1 9 -11 10 -16 2 -16 -6 0 -11 -7 -11
-16 0 -12 6 -11 32 7 28 20 31 21 25 5 -4 -10 -3 -24 3 -30 5 -7 11 -77 13
-157 3 -141 3 -140 5 43 1 103 -1 188 -5 190 -5 2 -41 2 -80 0z"/>
<path d="M3042 5794 c15 -15 18 -15 39 0 23 16 23 16 -16 16 -36 0 -38 -1 -23
-16z"/>
<path d="M3115 5800 c4 -6 11 -8 16 -5 14 9 11 15 -7 15 -8 0 -12 -5 -9 -10z"/>
<path d="M3240 5795 c0 -19 9 -19 34 0 19 14 19 15 -7 15 -17 0 -27 -5 -27
-15z"/>
<path d="M3315 5800 c3 -5 8 -10 11 -10 2 0 4 5 4 10 0 6 -5 10 -11 10 -5 0
-7 -4 -4 -10z"/>
<path d="M4030 5795 c0 -8 2 -15 4 -15 2 0 6 7 10 15 3 8 1 15 -4 15 -6 0 -10
-7 -10 -15z"/>
<path d="M4600 5798 c0 -9 5 -20 11 -23 17 -11 20 0 4 21 -13 17 -14 17 -15 2z"/>
<path d="M4811 5740 c0 -8 4 -22 9 -30 12 -18 12 -2 0 25 -6 13 -9 15 -9 5z"/>
<path d="M2952 5720 c0 -14 2 -19 5 -12 2 6 2 18 0 25 -3 6 -5 1 -5 -13z"/>
<path d="M5040 5701 c0 -12 5 -21 10 -21 6 0 10 6 10 14 0 8 -4 18 -10 21 -5
3 -10 -3 -10 -14z"/>
<path d="M2952 5610 c0 -14 2 -19 5 -12 2 6 2 18 0 25 -3 6 -5 1 -5 -13z"/>
<path d="M2952 5480 c0 -14 2 -19 5 -12 2 6 2 18 0 25 -3 6 -5 1 -5 -13z"/>
<path d="M4800 5421 c0 -6 5 -13 10 -16 6 -3 10 1 10 9 0 9 -4 16 -10 16 -5 0
-10 -4 -10 -9z"/>
<path d="M4913 5345 c0 -33 2 -45 4 -27 2 18 2 45 0 60 -2 15 -4 0 -4 -33z"/>
<path d="M4790 5350 c0 -5 4 -10 9 -10 5 0 3 -12 -4 -27 -14 -30 -18 -54 -16
-93 l2 -25 11 25 c6 14 10 38 9 54 -1 15 3 34 9 41 6 7 8 20 4 29 -7 18 -24
22 -24 6z"/>
<path d="M4842 5340 c0 -14 2 -19 5 -12 2 6 2 18 0 25 -3 6 -5 1 -5 -13z"/>
<path d="M4727 5304 c-6 -53 7 -99 24 -89 7 5 8 25 4 59 -10 74 -21 87 -28 30z"/>
<path d="M4840 5238 c0 -38 3 -49 10 -38 13 20 13 77 0 85 -6 4 -10 -14 -10
-47z"/>
<path d="M4908 4933 c-2 -181 0 -332 5 -337 4 -6 7 142 7 327 0 185 -2 337 -5
337 -2 0 -6 -147 -7 -327z"/>
<path d="M4821 5224 c0 -11 3 -14 6 -6 3 7 2 16 -1 19 -3 4 -6 -2 -5 -13z"/>
<path d="M4630 5190 c0 -5 5 -10 11 -10 5 0 7 5 4 10 -3 6 -8 10 -11 10 -2 0
-4 -4 -4 -10z"/>
<path d="M4777 5183 c-13 -13 -8 -65 6 -60 9 3 13 -6 12 -34 0 -21 -3 -39 -7
-39 -5 0 -8 -7 -8 -15 0 -8 3 -15 8 -15 15 0 31 39 38 91 6 46 5 52 -9 46 -12
-5 -17 -1 -17 13 0 20 -11 26 -23 13z"/>
<path d="M4840 5155 c0 -9 5 -15 11 -13 6 2 11 8 11 13 0 5 -5 11 -11 13 -6 2
-11 -4 -11 -13z"/>
<path d="M4657 5154 c-8 -8 1 -24 14 -24 5 0 9 7 9 15 0 15 -12 20 -23 9z"/>
<path d="M4830 4780 c0 -11 -6 -20 -12 -20 -9 0 -10 -3 -2 -8 6 -4 14 -14 17
-22 3 -8 6 4 6 28 1 23 -1 42 -4 42 -3 0 -5 -9 -5 -20z"/>
<path d="M4791 4700 c-10 -22 -17 -40 -14 -40 12 0 43 44 43 62 0 28 -8 22
-29 -22z"/>
<path d="M2951 4714 c0 -11 3 -14 6 -6 3 7 2 16 -1 19 -3 4 -6 -2 -5 -13z"/>
<path d="M5090 4680 c0 -5 5 -10 10 -10 6 0 10 5 10 10 0 6 -4 10 -10 10 -5 0
-10 -4 -10 -10z"/>
<path d="M2949 4648 c-5 -61 -4 -137 2 -153 5 -12 8 17 8 73 1 50 -1 92 -4 92
-3 0 -5 -6 -6 -12z"/>
<path d="M4806 4641 c-8 -13 14 -51 30 -51 19 0 25 30 9 46 -12 12 -15 12 -15
2 0 -10 -2 -10 -9 1 -6 9 -11 10 -15 2z"/>
<path d="M3620 4616 c0 -8 -10 -17 -22 -19 -17 -3 -14 -5 10 -6 32 -1 45 20
22 34 -5 3 -10 -1 -10 -9z"/>
<path d="M4770 4605 c0 -8 5 -15 10 -15 6 0 10 7 10 15 0 8 -4 15 -10 15 -5 0
-10 -7 -10 -15z"/>
<path d="M4060 4600 c0 -5 5 -10 11 -10 5 0 7 5 4 10 -3 6 -8 10 -11 10 -2 0
-4 -4 -4 -10z"/>
<path d="M4977 4594 c-4 -4 -7 -35 -7 -68 1 -48 3 -57 11 -43 6 10 8 25 5 33
-3 8 -1 23 6 33 11 19 -2 58 -15 45z"/>
<path d="M5018 4588 c-3 -7 -3 -26 -2 -43 1 -16 3 -40 3 -53 1 -14 6 -22 13
-20 17 6 19 128 2 128 -6 0 -14 -6 -16 -12z"/>
<path d="M4055 4530 c-3 -5 -1 -10 4 -10 6 0 11 5 11 10 0 6 -2 10 -4 10 -3 0
-8 -4 -11 -10z"/>
<path d="M4614 4533 c-17 -3 -21 -9 -16 -26 9 -36 32 -47 64 -31 23 12 26 18
19 37 -8 22 -28 28 -67 20z m35 -38 c3 -16 1 -17 -11 -7 -8 6 -18 9 -21 5 -4
-3 -7 1 -7 11 0 24 34 16 39 -9z"/>
<path d="M4748 4533 c-42 -11 -10 -64 59 -100 21 -11 23 -10 23 18 0 19 5 29
15 29 20 0 20 46 -1 54 -17 7 -69 6 -96 -1z"/>
<path d="M4900 4529 c0 -5 -4 -7 -10 -4 -6 4 -10 -5 -10 -19 0 -15 5 -25 12
-23 9 1 13 -33 16 -127 4 -115 2 -131 -14 -143 -16 -12 -16 -14 -1 -31 13 -15
17 -39 17 -115 0 -56 -4 -99 -10 -102 -6 -4 -7 -12 -3 -18 10 -14 9 -75 -1
-199 -8 -95 -27 -132 -26 -51 0 26 0 66 1 87 0 22 -4 42 -8 45 -4 3 -13 15
-18 25 -9 15 -6 24 12 42 27 27 31 85 8 104 -9 7 -14 19 -11 26 2 6 2 15 -2
18 -3 4 -7 30 -9 59 -3 65 -11 97 -22 97 -13 0 -24 -34 -12 -38 18 -6 13 -19
-20 -51 -25 -25 -30 -37 -24 -58 5 -23 4 -25 -9 -14 -29 24 -62 -29 -35 -56 8
-8 8 -21 1 -45 -5 -18 -10 -48 -11 -67 -2 -46 -10 -55 -30 -37 -12 11 -18 32
-19 66 0 28 -4 55 -8 62 -4 6 -6 39 -5 73 2 51 -1 64 -15 69 -24 9 -27 2 -12
-31 15 -30 13 -83 -3 -83 -5 0 -9 7 -9 15 0 8 -4 15 -10 15 -5 0 -10 -20 -10
-44 0 -40 2 -44 21 -39 17 5 20 2 17 -13 -3 -13 -11 -18 -27 -16 -19 2 -22 -1
-18 -19 3 -12 1 -29 -5 -39 -15 -24 12 -55 32 -37 10 10 12 8 6 -6 -3 -10 -6
-25 -6 -33 0 -9 -5 -12 -10 -9 -14 8 -30 -38 -23 -64 4 -15 11 -20 23 -16 15
5 18 0 18 -30 0 -19 -4 -32 -9 -29 -5 3 -9 15 -9 27 0 18 -3 17 -16 -10 -14
-27 -14 -36 -3 -49 9 -11 9 -18 2 -22 -14 -9 -20 -53 -9 -70 13 -21 -4 -29
-18 -9 -19 25 -36 21 -36 -8 0 -22 -3 -25 -25 -19 -19 5 -25 2 -25 -11 0 -9 4
-14 9 -10 5 3 12 1 16 -5 5 -8 -12 -14 -35 -12 -3 0 -6 -11 -5 -25 0 -14 -6
-28 -12 -30 -9 -3 -13 8 -14 34 0 35 -1 36 -10 14 -5 -14 -8 -30 -5 -36 2 -7
0 -18 -4 -25 -7 -12 -13 -12 -37 0 -15 8 -34 21 -41 28 -7 6 -22 12 -32 12
-10 0 -21 10 -25 23 -7 19 -9 16 -14 -18 -5 -32 -10 -39 -25 -37 -10 2 -23 -2
-27 -10 -7 -10 -9 -10 -9 0 0 6 -4 12 -10 12 -23 0 -3 -25 25 -31 22 -5 13 -7
-30 -8 l-60 -1 1 68 c1 67 -11 132 -25 132 -4 0 -7 -17 -7 -37 -1 -21 -3 -65
-5 -98 -4 -57 -5 -60 -31 -63 -16 -2 -28 -8 -28 -13 0 -5 177 -9 448 -9 l449
0 -3 113 c-1 61 -3 338 -3 615 -1 327 -4 502 -11 502 -5 0 -10 -5 -10 -11z
m-70 -451 l0 -33 -14 25 c-13 26 -12 40 5 40 5 0 9 -15 9 -32z m-9 -62 c5 -6
9 -35 9 -65 l0 -55 -22 21 c-17 17 -19 25 -10 36 7 8 10 34 7 63 -2 27 -2 40
1 29 3 -11 10 -24 15 -29z m-51 -40 c0 -3 -4 -8 -10 -11 -5 -3 -10 -1 -10 4 0
6 5 11 10 11 6 0 10 -2 10 -4z m34 -97 c-3 -5 -10 -7 -15 -3 -5 3 -7 10 -3 15
3 5 10 7 15 3 5 -3 7 -10 3 -15z m-34 -13 c0 -8 -4 -18 -10 -21 -5 -3 -10 3
-10 14 0 12 5 21 10 21 6 0 10 -6 10 -14z m10 -45 c0 -6 -4 -13 -10 -16 -5 -3
-10 1 -10 9 0 9 5 16 10 16 6 0 10 -4 10 -9z m-100 -42 c0 -16 -4 -28 -9 -25
-8 5 -3 56 5 56 2 0 4 -14 4 -31z m220 -149 c0 -5 -5 -10 -11 -10 -5 0 -7 5
-4 10 3 6 8 10 11 10 2 0 4 -4 4 -10z m-23 -72 c-3 -8 -6 -5 -6 6 -1 11 2 17
5 13 3 -3 4 -12 1 -19z m-474 -225 c-7 -2 -19 -2 -25 0 -7 3 -2 5 12 5 14 0
19 -2 13 -5z"/>
<path d="M4338 4523 c7 -3 16 -2 19 1 4 3 -2 6 -13 5 -11 0 -14 -3 -6 -6z"/>
<path d="M2952 4435 c0 -16 2 -22 5 -12 2 9 2 23 0 30 -3 6 -5 -1 -5 -18z"/>
<path d="M4743 4400 c-1 -17 2 -30 6 -30 11 0 22 40 15 52 -10 16 -19 7 -21
-22z"/>
<path d="M4798 4414 c-7 -11 -4 -51 4 -59 3 -3 8 2 10 12 6 22 -6 61 -14 47z"/>
<path d="M2950 4388 c-5 -63 -3 -358 2 -358 5 0 8 81 8 180 0 99 -2 180 -5
180 -3 0 -5 -1 -5 -2z"/>
<path d="M4690 4365 c0 -8 5 -15 10 -15 6 0 10 7 10 15 0 8 -4 15 -10 15 -5 0
-10 -7 -10 -15z"/>
<path d="M4970 4355 c0 -8 5 -15 11 -15 6 0 9 -6 6 -14 -3 -8 1 -20 9 -26 17
-15 19 5 4 44 -10 28 -30 35 -30 11z"/>
<path d="M4647 4353 c-6 -12 4 -93 12 -93 3 0 6 23 6 50 1 45 -7 63 -18 43z"/>
<path d="M5030 4311 c0 -5 5 -13 10 -16 6 -3 10 -2 10 4 0 5 -4 13 -10 16 -5
3 -10 2 -10 -4z"/>
<path d="M4776 4282 c-6 -11 31 -48 40 -39 3 3 1 14 -5 24 -6 10 -11 14 -11 8
0 -5 -4 -4 -9 4 -5 8 -11 9 -15 3z"/>
<path d="M4983 4233 c-8 -3 -13 -21 -13 -44 0 -32 4 -39 19 -39 20 0 34 32 21
47 -5 4 -10 15 -12 24 -1 9 -9 14 -15 12z"/>
<path d="M4655 4200 c-3 -5 -1 -10 4 -10 6 0 11 5 11 10 0 6 -2 10 -4 10 -3 0
-8 -4 -11 -10z"/>
<path d="M5041 4174 c0 -11 3 -14 6 -6 3 7 2 16 -1 19 -3 4 -6 -2 -5 -13z"/>
<path d="M4747 4163 c-4 -3 -7 -18 -7 -31 0 -24 1 -24 19 -8 11 10 17 24 14
32 -6 15 -16 18 -26 7z"/>
<path d="M4258 4138 c-3 -7 -3 -19 -1 -26 4 -10 9 -8 19 5 7 10 14 21 14 26 0
12 -28 8 -32 -5z"/>
<path d="M3005 4050 c-3 -5 -1 -10 4 -10 6 0 11 5 11 10 0 6 -2 10 -4 10 -3 0
-8 -4 -11 -10z"/>
<path d="M3060 4007 c0 -28 -17 -47 -42 -47 -13 0 -18 -8 -18 -30 0 -16 5 -30
10 -30 6 0 10 7 10 16 0 13 3 14 14 5 8 -7 12 -19 9 -29 -2 -9 3 -26 10 -37
14 -18 15 -17 24 24 7 36 27 63 50 66 1 1 -3 20 -9 43 -9 35 -15 42 -34 42
-18 0 -24 -5 -24 -23z"/>
<path d="M4510 3997 c0 -23 6 -37 16 -41 22 -8 28 -1 18 21 -4 10 -8 24 -8 32
-1 8 -7 16 -14 19 -8 2 -12 -8 -12 -31z"/>
<path d="M3590 3946 c0 -19 4 -24 15 -19 18 6 16 34 -2 41 -8 2 -13 -6 -13
-22z"/>
<path d="M3630 3920 c0 -5 5 -10 10 -10 6 0 10 5 10 10 0 6 -4 10 -10 10 -5 0
-10 -4 -10 -10z"/>
<path d="M4530 3900 c0 -5 5 -10 10 -10 6 0 10 5 10 10 0 6 -4 10 -10 10 -5 0
-10 -4 -10 -10z"/>
<path d="M3600 3870 c0 -18 4 -29 10 -25 6 3 10 15 10 25 0 10 -4 22 -10 25
-6 4 -10 -7 -10 -25z"/>
<path d="M3629 3857 c-7 -17 -17 -35 -22 -38 -14 -10 -17 -208 -5 -252 9 -29
8 -43 -2 -65 -11 -22 -14 -24 -17 -9 -3 9 -10 17 -18 17 -7 0 -15 10 -18 22
-5 18 -8 19 -22 8 -14 -11 -17 -10 -22 9 -5 19 -7 20 -18 5 -11 -16 -13 -15
-26 3 -8 10 -22 22 -31 26 -10 3 -18 15 -18 26 0 10 -7 22 -16 25 -22 9 -24 8
-24 -9 0 -8 7 -15 16 -15 8 0 12 -4 9 -10 -3 -5 3 -15 15 -22 11 -7 20 -19 20
-27 0 -7 7 -19 17 -26 19 -14 9 -35 -18 -35 -12 0 -19 7 -19 19 0 11 -4 22 -9
25 -18 11 -30 -21 -26 -72 l4 -51 -30 34 c-28 32 -29 36 -15 51 9 8 16 22 16
30 0 8 5 14 10 14 6 0 10 5 10 11 0 5 -5 7 -12 3 -8 -5 -9 -2 -5 9 3 9 2 19
-3 22 -6 4 -10 15 -10 26 0 10 -4 19 -10 19 -5 0 -10 10 -10 22 0 12 -2 19 -5
16 -3 -3 -7 -42 -9 -87 -2 -45 -6 -85 -10 -88 -14 -14 -18 9 -8 47 6 26 6 42
0 46 -5 3 -7 17 -4 30 4 14 2 24 -4 24 -5 0 -10 -12 -10 -27 -1 -32 -31 -73
-53 -73 -20 0 -30 29 -17 45 8 9 8 15 0 20 -12 7 -30 -35 -30 -71 0 -13 5 -24
10 -24 6 0 10 -9 10 -20 0 -11 4 -20 8 -20 5 0 7 14 4 30 -4 27 -2 30 19 26
20 -3 24 -9 22 -37 -1 -18 -6 -35 -12 -37 -5 -2 -7 -10 -4 -18 5 -14 -8 -19
-21 -7 -3 4 -16 7 -27 8 -15 1 -19 -3 -16 -17 3 -10 1 -18 -4 -18 -5 0 -11 12
-15 28 -16 72 -22 87 -33 84 -6 -1 -11 13 -12 35 -1 38 -1 38 -9 8 -6 -23 -8
-25 -9 -8 0 12 -5 25 -11 28 -5 3 -10 17 -10 31 0 13 -4 24 -10 24 -15 0 -12
-66 3 -78 24 -21 3 -102 -27 -102 -3 0 -3 35 -1 78 2 42 0 84 -5 92 -5 8 -10
11 -10 5 0 -5 -3 -79 -5 -162 l-5 -153 510 0 c293 0 510 4 510 9 0 12 -29 23
-41 15 -6 -3 -9 9 -7 32 4 51 -18 55 -26 4 -6 -38 -8 -40 -42 -40 -21 0 -33 4
-29 10 3 6 2 10 -4 10 -5 0 -13 -5 -16 -11 -11 -17 -40 -6 -41 16 0 11 -1 44
-2 73 -1 29 -7 52 -13 52 -6 0 -10 -21 -9 -52 3 -105 8 -98 -65 -98 -37 0 -65
4 -65 10 0 6 5 10 11 10 8 0 7 6 -2 16 -18 22 -19 86 -1 79 6 -2 12 2 12 10 0
8 -7 15 -16 15 -8 0 -13 3 -11 8 3 4 2 25 -2 47 -5 30 -11 39 -23 37 -14 -2
-15 2 -7 30 27 86 30 109 15 124 -12 12 -13 20 -4 40 10 20 9 27 -3 35 -8 5
-9 9 -3 9 14 0 35 78 24 85 -4 3 -14 -10 -21 -28z m-104 -373 c-10 -8 -20 -12
-23 -10 -7 8 23 34 32 28 5 -3 1 -11 -9 -18z m-225 -34 c0 -5 -5 -10 -11 -10
-5 0 -7 5 -4 10 3 6 8 10 11 10 2 0 4 -4 4 -10z m292 -54 c-9 -18 -11 -16 -11
19 0 33 1 37 10 21 8 -12 8 -25 1 -40z m-58 35 c5 -8 -26 -51 -37 -51 -3 0 1
14 9 30 17 32 20 35 28 21z m23 -23 c-3 -8 -6 -5 -6 6 -1 11 2 17 5 13 3 -3 4
-12 1 -19z m-80 -30 c-3 -8 -6 -5 -6 6 -1 11 2 17 5 13 3 -3 4 -12 1 -19z"/>
<path d="M4514 3865 c-9 -21 16 -51 27 -33 13 20 11 35 -6 42 -9 3 -18 -1 -21
-9z"/>
<path d="M3227 3863 c-13 -13 -7 -21 13 -16 11 3 17 9 14 14 -6 11 -18 12 -27
2z"/>
<path d="M3431 3775 c1 -43 2 -46 10 -24 6 16 6 35 0 50 -8 20 -10 16 -10 -26z"/>
<path d="M3052 3756 c1 -10 8 -17 13 -17 15 1 12 24 -3 29 -9 3 -13 -2 -10
-12z"/>
<path d="M3387 3744 c-4 -4 -7 -21 -7 -38 l1 -31 20 24 c20 24 21 42 3 48 -6
2 -13 0 -17 -3z"/>
<path d="M3437 3683 c-11 -20 -17 -63 -8 -63 6 0 7 -8 4 -17 -6 -16 -5 -16 10
-4 15 12 20 11 37 -4 15 -14 20 -15 20 -4 0 17 -15 41 -24 40 -23 -3 -28 0
-18 12 7 8 6 17 -3 30 -7 10 -15 15 -18 10z"/>
<path d="M3012 3660 c0 -14 2 -19 5 -12 2 6 2 18 0 25 -3 6 -5 1 -5 -13z"/>
<path d="M3490 3670 c0 -5 5 -10 11 -10 5 0 7 5 4 10 -3 6 -8 10 -11 10 -2 0
-4 -4 -4 -10z"/>
<path d="M3682 3654 c1 -9 9 -19 16 -22 9 -3 13 2 10 14 -1 9 -9 19 -16 22 -9
3 -13 -2 -10 -14z"/>
<path d="M4517 3648 c-2 -7 -1 -22 4 -33 6 -16 8 -14 8 13 1 33 -4 41 -12 20z"/>
<path d="M3794 3582 c1 -23 5 -45 9 -48 10 -11 8 59 -2 75 -6 9 -8 0 -7 -27z"/>
<path d="M4272 3590 c0 -14 2 -19 5 -12 2 6 2 18 0 25 -3 6 -5 1 -5 -13z"/>
<path d="M3520 3580 c0 -11 5 -20 10 -20 6 0 10 9 10 20 0 11 -4 20 -10 20 -5
0 -10 -9 -10 -20z"/>
<path d="M3630 3590 c0 -5 5 -10 10 -10 6 0 10 5 10 10 0 6 -4 10 -10 10 -5 0
-10 -4 -10 -10z"/>
<path d="M4526 3565 c4 -8 8 -15 10 -15 2 0 4 7 4 15 0 8 -4 15 -10 15 -5 0
-7 -7 -4 -15z"/>
<path d="M4267 3503 c-10 -9 -9 -41 1 -47 5 -3 9 8 10 24 1 32 -1 34 -11 23z"/>
<path d="M3850 3415 c0 -8 5 -15 10 -15 6 0 10 7 10 15 0 8 -4 15 -10 15 -5 0
-10 -7 -10 -15z"/>
<path d="M3004 3265 c-2 -5 -5 -279 -6 -608 l-3 -597 968 0 967 0 -2 608 -3
607 -170 -1 c-441 -3 -495 -5 -496 -17 0 -7 -1 -41 -2 -77 -2 -51 -5 -65 -19
-68 -18 -4 -31 37 -31 103 0 45 -11 52 -85 54 l-43 1 6 -92 c4 -51 8 -98 10
-105 2 -7 1 -14 -3 -17 -4 -2 -6 -53 -5 -113 2 -114 -2 -143 -19 -143 -6 0 -9
25 -8 63 3 85 2 99 -10 92 -17 -11 -40 9 -30 25 7 12 12 12 22 2 26 -26 36
-13 19 24 -14 32 -19 35 -47 31 -30 -5 -32 -3 -38 33 -7 44 0 70 19 70 8 0 17
9 20 21 5 14 13 19 25 16 21 -5 30 11 30 54 0 36 -24 48 -49 25 -22 -20 -31
-20 -31 -1 0 10 -10 15 -30 15 -28 0 -30 -3 -31 -37 -1 -21 0 -42 1 -48 2 -11
2 -25 -2 -79 -3 -45 -33 -60 -48 -23 -6 16 -9 18 -9 5 -1 -9 -4 -23 -7 -32 -5
-12 2 -14 33 -11 l38 3 0 -44 c0 -24 -3 -44 -7 -44 -5 0 -8 11 -8 25 0 31 -16
33 -24 3 -10 -38 -7 -51 9 -44 10 3 15 -1 15 -13 0 -10 3 -33 7 -51 6 -30 4
-33 -15 -28 -27 7 -28 -3 -4 -25 13 -12 17 -26 14 -47 -5 -34 -22 -41 -22 -10
0 11 -4 28 -9 38 -5 9 -12 25 -15 34 -3 11 -13 15 -28 12 -19 -3 -18 -2 4 8
33 14 43 39 29 67 -6 11 -11 29 -11 40 0 22 -14 28 -25 10 -4 -5 -7 -32 -7
-60 1 -27 -3 -49 -7 -49 -5 0 -9 41 -8 90 0 70 3 93 15 99 13 7 12 11 -7 20
-19 10 -21 18 -16 44 11 49 23 54 39 16 l15 -34 1 35 c0 19 9 48 19 63 10 16
16 37 14 48 -5 16 -15 19 -64 19 -49 0 -59 -3 -59 -17 -1 -16 -2 -17 -13 -2
-11 14 -50 17 -317 18 -168 1 -336 3 -374 4 -38 1 -70 -2 -72 -8z m886 -15 c0
-5 -4 -10 -10 -10 -5 0 -10 5 -10 10 0 6 5 10 10 10 6 0 10 -4 10 -10z m-50
-21 c0 -6 -4 -7 -10 -4 -5 3 -10 11 -10 16 0 6 5 7 10 4 6 -3 10 -11 10 -16z
m-54 -76 c4 -27 8 -61 8 -78 0 -28 -3 -30 -40 -30 -36 0 -39 2 -42 30 -2 17
-1 27 3 23 4 -4 18 9 31 28 17 25 22 42 18 61 -5 17 -3 24 3 20 6 -4 14 -28
19 -54z m636 -17 c-2 -36 1 -46 13 -46 13 0 15 -7 9 -37 -4 -21 -11 -41 -17
-44 -5 -4 -11 -28 -13 -54 -1 -26 -5 -50 -9 -53 -8 -9 -25 19 -25 43 0 11 -7
31 -15 45 -13 22 -14 23 -15 5 l-1 -20 -9 20 c-5 11 -9 28 -9 39 -1 15 2 16
14 6 18 -15 17 -19 20 61 2 36 8 76 15 89 11 20 13 21 28 7 10 -11 15 -32 14
-61z m-672 33 c0 -10 -4 -19 -10 -19 -5 0 -10 12 -10 26 0 14 4 23 10 19 6 -3
10 -15 10 -26z m250 22 c0 -6 -4 -13 -10 -16 -5 -3 -10 1 -10 9 0 9 5 16 10
16 6 0 10 -4 10 -9z m148 -26 c-2 -19 0 -35 4 -35 4 0 3 -11 -2 -25 -5 -14 -6
-25 -2 -25 4 0 17 -8 30 -18 20 -15 22 -22 13 -45 -7 -18 -15 -25 -26 -21 -8
3 -15 1 -15 -5 0 -6 7 -11 15 -11 9 0 15 -9 15 -24 0 -34 -18 -43 -29 -14 l-8
23 -7 -22 c-4 -12 -2 -30 5 -41 8 -13 9 -24 1 -37 -17 -31 -28 70 -11 102 12
22 11 26 -4 35 -17 9 -17 11 -2 35 13 19 14 27 4 39 -6 7 -9 23 -6 35 3 12 1
32 -4 46 -11 28 -5 43 18 43 12 0 14 -8 11 -35z m-458 -67 c0 -60 -1 -62 -17
-44 -14 14 -15 20 -5 23 10 4 9 9 -4 24 -16 18 -16 20 1 39 10 11 20 20 22 20
1 0 3 -28 3 -62z m670 52 c0 -5 -4 -10 -10 -10 -5 0 -10 5 -10 10 0 6 5 10 10
10 6 0 10 -4 10 -10z m-805 -79 c3 -5 1 -12 -5 -16 -5 -3 -10 1 -10 9 0 18 6
21 15 7z m709 -7 c11 -27 7 -62 -11 -98 -21 -41 -33 -46 -33 -13 0 12 -3 39
-7 60 -5 34 -3 39 16 44 17 4 19 8 9 14 -10 7 -9 9 3 9 9 0 20 -7 23 -16z
m186 -94 c0 -5 -4 -10 -10 -10 -5 0 -10 5 -10 10 0 6 5 10 10 10 6 0 10 -4 10
-10z m-770 -36 c0 -30 -3 -34 -14 -25 -7 6 -11 22 -8 36 7 38 22 30 22 -11z
m70 12 c0 -14 5 -28 11 -31 6 -5 4 -12 -8 -20 -13 -10 -20 -10 -25 -2 -10 15
-10 61 -1 70 13 14 23 6 23 -17z m260 -53 c-8 -6 -18 -9 -22 -7 -10 6 -10 46
-1 70 5 13 9 10 22 -17 15 -30 15 -35 1 -46z m-230 47 c0 -5 -4 -10 -10 -10
-5 0 -10 5 -10 10 0 6 5 10 10 10 6 0 10 -4 10 -10z m258 -102 c1 -51 0 -52
-12 -24 -7 15 -11 39 -8 52 8 42 19 26 20 -28z m-262 -15 c-11 -11 -19 6 -11
24 8 17 8 17 12 0 3 -10 2 -21 -1 -24z m67 -56 c-4 -6 -10 -1 -15 12 -4 13 -5
28 -1 34 4 6 10 1 15 -12 4 -13 5 -28 1 -34z m-106 21 c-3 -8 -6 -5 -6 6 -1
11 2 17 5 13 3 -3 4 -12 1 -19z m350 -83 c0 -47 -3 -82 -8 -79 -11 7 -12 164
-1 164 5 0 9 -38 9 -85z m-193 31 c4 -19 12 -36 18 -38 7 -3 9 -12 5 -22 -5
-12 -11 -15 -23 -8 -11 6 -18 27 -21 62 -5 58 11 62 21 6z m7 -152 c6 -11 9
-37 7 -57 -5 -57 -30 -31 -36 37 -5 59 8 115 15 66 2 -14 8 -34 14 -46z m136
34 c-3 -7 -5 -2 -5 12 0 14 2 19 5 13 2 -7 2 -19 0 -25z m-30 -30 c-3 -7 -5
-2 -5 12 0 14 2 19 5 13 2 -7 2 -19 0 -25z m3 -48 c0 -5 -5 -10 -11 -10 -5 0
-7 5 -4 10 3 6 8 10 11 10 2 0 4 -4 4 -10z m77 -12 c-3 -8 -6 -5 -6 6 -1 11 2
17 5 13 3 -3 4 -12 1 -19z m-177 -62 c0 -7 -8 -13 -17 -13 -19 0 -35 16 -27
28 7 11 44 -2 44 -15z m-5 -124 c-3 -3 -13 2 -22 11 -16 16 -16 17 0 17 10 0
18 9 19 23 1 12 3 8 5 -11 3 -19 2 -37 -2 -40z"/>
<path d="M4034 3115 c-9 -19 -9 -27 1 -35 10 -9 16 -6 25 10 12 22 7 50 -7 50
-4 0 -13 -11 -19 -25z"/>
<path d="M5409 6998 c-3 -35 -2 -94 2 -133 5 -58 6 -47 7 63 2 139 -3 175 -9
70z"/>
<path d="M5360 3188 c0 -20 5 -40 10 -43 13 -8 13 45 0 65 -7 11 -10 6 -10
-22z"/>
<path d="M2511 3174 c0 -11 3 -14 6 -6 3 7 2 16 -1 19 -3 4 -6 -2 -5 -13z"/>
<path d="M5373 2980 c0 -30 2 -43 4 -27 2 15 2 39 0 55 -2 15 -4 2 -4 -28z"/>
<path d="M5355 2601 c-3 -10 -1 -85 5 -167 5 -82 10 -165 11 -184 l1 -35 7 36
c7 34 7 81 0 277 -2 82 -12 110 -24 73z"/>
</g>
</svg>
