<?xml version="1.0" standalone="no"?>
<!DOCTYPE svg PUBLIC "-//W3C//DTD SVG 20010904//EN"
 "http://www.w3.org/TR/2001/REC-SVG-20010904/DTD/svg10.dtd">
<svg version="1.0" xmlns="http://www.w3.org/2000/svg"
 width="612.000000pt" height="459.000000pt" viewBox="0 0 612.000000 459.000000"
 preserveAspectRatio="xMidYMid meet">

<g transform="translate(0.000000,459.000000) scale(0.100000,-0.100000)"
fill="#000000" stroke="none">
<path d="M630 2600 l0 -1640 2430 0 2430 0 0 1640 0 1640 -2430 0 -2430 0 0
-1640z m148 1584 c-3 -3 -24 -5 -47 -6 l-40 0 -4 -147 -3 -146 -2 153 -2 152
52 0 c28 0 49 -3 46 -6z m200 -1 c-32 -2 -86 -2 -120 0 -35 2 -9 3 57 3 66 0
94 -1 63 -3z m105 0 c-7 -2 -19 -2 -25 0 -7 3 -2 5 12 5 14 0 19 -2 13 -5z
m180 0 c-13 -2 -35 -2 -50 0 -16 2 -5 4 22 4 28 0 40 -2 28 -4z m1600 0 c-13
-2 -33 -2 -45 0 -13 2 -3 4 22 4 25 0 35 -2 23 -4z m2090 0 c-13 -2 -33 -2
-45 0 -13 2 -3 4 22 4 25 0 35 -2 23 -4z m150 0 c-13 -2 -33 -2 -45 0 -13 2
-3 4 22 4 25 0 35 -2 23 -4z m-3283 -903 l0 -630 -422 2 -423 3 -3 628 -2 627
425 0 425 0 0 -630z m1015 505 c11 -182 2 -1118 -10 -1127 -5 -4 -205 -8 -442
-8 l-433 0 0 630 0 630 439 0 439 0 7 -125z m1335 -505 l0 -631 -437 3 -438 3
-3 628 -2 627 440 0 440 0 0 -630z m988 3 l-3 -628 -427 -3 -428 -2 0 630 0
630 430 0 430 0 -2 -627z m-4471 445 c-2 -13 -4 -3 -4 22 0 25 2 35 4 23 2
-13 2 -33 0 -45z m0 -150 c-2 -13 -4 -5 -4 17 -1 22 1 32 4 23 2 -10 2 -28 0
-40z m0 -100 c-3 -7 -5 -2 -5 12 0 14 2 19 5 13 2 -7 2 -19 0 -25z m0 -125
c-3 -10 -5 -4 -5 12 0 17 2 24 5 18 2 -7 2 -21 0 -30z m0 -155 c-2 -24 -4 -7
-4 37 0 44 2 63 4 43 2 -21 2 -57 0 -80z m0 -170 c-2 -24 -4 -5 -4 42 0 47 2
66 4 43 2 -24 2 -62 0 -85z m0 -180 c-2 -13 -4 -3 -4 22 0 25 2 35 4 23 2 -13
2 -33 0 -45z m4760 0 c-2 -13 -4 -3 -4 22 0 25 2 35 4 23 2 -13 2 -33 0 -45z
m-2480 -200 c-4 -66 -7 -138 -7 -160 0 -31 -3 -38 -20 -38 -17 0 -20 7 -20 38
0 22 -3 94 -7 160 l-6 122 33 0 33 0 -6 -122z m240 0 c-4 -66 -7 -138 -7 -160
0 -31 -3 -38 -20 -38 -18 0 -20 7 -20 78 0 43 -3 82 -7 86 -4 4 -8 40 -9 81
l-2 75 35 0 36 0 -6 -122z m-2520 -5 c-2 -21 -4 -4 -4 37 0 41 2 58 4 38 2
-21 2 -55 0 -75z m0 -75 c-3 -8 -6 -5 -6 6 -1 11 2 17 5 13 3 -3 4 -12 1 -19z
m1133 -653 l0 -635 -425 0 -425 0 0 628 c0 346 3 632 7 635 3 4 195 7 425 7
l418 0 0 -635z m1005 627 c6 -4 10 -13 9 -19 -1 -7 -2 -290 -3 -628 l-1 -615
-440 0 -440 0 0 635 0 635 433 0 c237 0 437 -4 442 -8z m1345 -627 l0 -635
-440 0 -440 0 0 635 0 635 440 0 440 0 0 -635z m988 -2 l2 -633 -430 0 -430 0
0 635 0 635 428 -2 427 -3 3 -632z m-4471 295 c-1 -57 -3 -11 -3 102 0 113 2
159 3 103 2 -57 2 -149 0 -205z m0 -800 c-2 -13 -4 -3 -4 22 0 25 2 35 4 23 2
-13 2 -33 0 -45z m0 -160 c-2 -13 -4 -3 -4 22 0 25 2 35 4 23 2 -13 2 -33 0
-45z m871 -15 c-87 -2 -229 -2 -316 0 -86 1 -15 3 158 3 173 0 244 -2 158 -3z
m695 0 c-40 -2 -106 -2 -145 0 -40 1 -8 3 72 3 80 0 112 -2 73 -3z m450 0
c-13 -2 -33 -2 -45 0 -13 2 -3 4 22 4 25 0 35 -2 23 -4z m1090 0 c-7 -2 -19
-2 -25 0 -7 3 -2 5 12 5 14 0 19 -2 13 -5z m280 0 c-7 -2 -21 -2 -30 0 -10 3
-4 5 12 5 17 0 24 -2 18 -5z m825 0 c-82 -2 -214 -2 -295 0 -82 1 -15 3 147 3
162 0 229 -2 148 -3z m-4211 -165 c-2 -24 -4 -7 -4 37 0 44 2 63 4 43 2 -21 2
-57 0 -80z"/>
</g>
</svg>
